<mxfile host="app.diagrams.net" agent="Mozilla/5.0 (Windows NT 10.0; Win64; x64) AppleWebKit/537.36 (KHTML, like Gecko) Chrome/135.0.0.0 Safari/537.36" version="26.2.13">
  <diagram name="Page-1" id="b5b7bab2-c9e2-2cf4-8b2a-24fd1a2a6d21">
    <mxGraphModel grid="1" page="1" gridSize="10" guides="1" tooltips="1" connect="1" arrows="1" fold="1" pageScale="1" pageWidth="827" pageHeight="1169" background="none" math="0" shadow="0">
      <root>
        <mxCell id="0" />
        <mxCell id="1" parent="0" />
        <mxCell id="6e0c8c40b5770093-72" value="" style="shape=folder;fontStyle=1;spacingTop=10;tabWidth=194;tabHeight=22;tabPosition=left;html=1;rounded=0;shadow=0;comic=0;labelBackgroundColor=none;strokeWidth=1;fillColor=none;fontFamily=Verdana;fontSize=10;align=center;" vertex="1" parent="1">
          <mxGeometry x="320" y="114" width="1350" height="940" as="geometry" />
        </mxCell>
        <mxCell id="6e0c8c40b5770093-73" value="Arquitetura" style="text;html=1;align=left;verticalAlign=top;spacingTop=-4;fontSize=10;fontFamily=Verdana" vertex="1" parent="1">
          <mxGeometry x="327.5" y="114.5" width="130" height="20" as="geometry" />
        </mxCell>
        <mxCell id="gY_7XjyDLN-W95m0JR-Q-20" style="edgeStyle=orthogonalEdgeStyle;rounded=0;orthogonalLoop=1;jettySize=auto;html=1;exitX=0.5;exitY=1;exitDx=0;exitDy=0;exitPerimeter=0;entryX=0.25;entryY=0;entryDx=0;entryDy=0;dashed=1;" edge="1" parent="1" source="gY_7XjyDLN-W95m0JR-Q-1" target="gY_7XjyDLN-W95m0JR-Q-15">
          <mxGeometry relative="1" as="geometry">
            <Array as="points">
              <mxPoint x="708" y="560" />
            </Array>
          </mxGeometry>
        </mxCell>
        <mxCell id="gY_7XjyDLN-W95m0JR-Q-1" value="" style="shape=folder;fontStyle=1;spacingTop=10;tabWidth=50;tabHeight=17;tabPosition=left;html=1;rounded=0;shadow=0;comic=0;labelBackgroundColor=none;strokeWidth=1;fontFamily=Verdana;fontSize=10;align=center;labelPosition=center;verticalLabelPosition=middle;verticalAlign=middle;" vertex="1" parent="1">
          <mxGeometry x="380" y="210" width="680" height="350" as="geometry" />
        </mxCell>
        <mxCell id="gY_7XjyDLN-W95m0JR-Q-3" value="&lt;span style=&quot;font-size: 18px;&quot;&gt;Web App&lt;/span&gt;" style="text;html=1;align=center;verticalAlign=middle;whiteSpace=wrap;rounded=0;" vertex="1" parent="1">
          <mxGeometry x="680" y="220" width="110" height="60" as="geometry" />
        </mxCell>
        <mxCell id="gY_7XjyDLN-W95m0JR-Q-4" value="" style="shape=folder;fontStyle=1;spacingTop=10;tabWidth=50;tabHeight=17;tabPosition=left;html=1;rounded=0;shadow=0;comic=0;labelBackgroundColor=none;strokeWidth=1;fontFamily=Verdana;fontSize=10;align=center;labelPosition=center;verticalLabelPosition=middle;verticalAlign=middle;" vertex="1" parent="1">
          <mxGeometry x="400" y="280" width="280" height="250" as="geometry" />
        </mxCell>
        <mxCell id="gY_7XjyDLN-W95m0JR-Q-5" value="&lt;font style=&quot;font-size: 18px;&quot;&gt;Service&lt;/font&gt;" style="text;html=1;align=center;verticalAlign=middle;whiteSpace=wrap;rounded=0;" vertex="1" parent="1">
          <mxGeometry x="485" y="290" width="110" height="60" as="geometry" />
        </mxCell>
        <mxCell id="gY_7XjyDLN-W95m0JR-Q-6" value="" style="shape=folder;fontStyle=1;spacingTop=10;tabWidth=50;tabHeight=17;tabPosition=left;html=1;rounded=0;shadow=0;comic=0;labelBackgroundColor=none;strokeWidth=1;fontFamily=Verdana;fontSize=10;align=center;labelPosition=center;verticalLabelPosition=middle;verticalAlign=middle;" vertex="1" parent="1">
          <mxGeometry x="730" y="280" width="310" height="250" as="geometry" />
        </mxCell>
        <mxCell id="gY_7XjyDLN-W95m0JR-Q-7" value="&lt;font style=&quot;font-size: 18px;&quot;&gt;UI&lt;/font&gt;" style="text;html=1;align=center;verticalAlign=middle;whiteSpace=wrap;rounded=0;" vertex="1" parent="1">
          <mxGeometry x="835" y="290" width="110" height="60" as="geometry" />
        </mxCell>
        <mxCell id="gY_7XjyDLN-W95m0JR-Q-8" value="" style="shape=folder;fontStyle=1;spacingTop=10;tabWidth=50;tabHeight=17;tabPosition=left;html=1;rounded=0;shadow=0;comic=0;labelBackgroundColor=none;strokeWidth=1;fontFamily=Verdana;fontSize=10;align=center;labelPosition=center;verticalLabelPosition=middle;verticalAlign=middle;" vertex="1" parent="1">
          <mxGeometry x="430" y="370" width="220" height="130" as="geometry" />
        </mxCell>
        <mxCell id="gY_7XjyDLN-W95m0JR-Q-9" value="&lt;font style=&quot;font-size: 18px;&quot;&gt;Actions&lt;/font&gt;" style="text;html=1;align=center;verticalAlign=middle;whiteSpace=wrap;rounded=0;" vertex="1" parent="1">
          <mxGeometry x="485" y="378" width="110" height="60" as="geometry" />
        </mxCell>
        <mxCell id="gY_7XjyDLN-W95m0JR-Q-10" value="" style="shape=folder;fontStyle=1;spacingTop=10;tabWidth=50;tabHeight=17;tabPosition=left;html=1;rounded=0;shadow=0;comic=0;labelBackgroundColor=none;strokeWidth=1;fontFamily=Verdana;fontSize=10;align=center;labelPosition=center;verticalLabelPosition=middle;verticalAlign=middle;" vertex="1" parent="1">
          <mxGeometry x="740" y="375" width="128.5" height="92" as="geometry" />
        </mxCell>
        <mxCell id="gY_7XjyDLN-W95m0JR-Q-11" value="&lt;font style=&quot;font-size: 18px;&quot;&gt;Components&lt;/font&gt;" style="text;html=1;align=center;verticalAlign=middle;whiteSpace=wrap;rounded=0;" vertex="1" parent="1">
          <mxGeometry x="749.25" y="387" width="110" height="60" as="geometry" />
        </mxCell>
        <mxCell id="gY_7XjyDLN-W95m0JR-Q-12" value="" style="shape=folder;fontStyle=1;spacingTop=10;tabWidth=50;tabHeight=17;tabPosition=left;html=1;rounded=0;shadow=0;comic=0;labelBackgroundColor=none;strokeWidth=1;fontFamily=Verdana;fontSize=10;align=center;labelPosition=center;verticalLabelPosition=middle;verticalAlign=middle;" vertex="1" parent="1">
          <mxGeometry x="901.5" y="375" width="128.5" height="92" as="geometry" />
        </mxCell>
        <mxCell id="gY_7XjyDLN-W95m0JR-Q-13" value="&lt;font style=&quot;font-size: 18px;&quot;&gt;Pages&lt;/font&gt;" style="text;html=1;align=center;verticalAlign=middle;whiteSpace=wrap;rounded=0;" vertex="1" parent="1">
          <mxGeometry x="910.75" y="387" width="110" height="60" as="geometry" />
        </mxCell>
        <mxCell id="gY_7XjyDLN-W95m0JR-Q-14" value="" style="shape=folder;fontStyle=1;spacingTop=10;tabWidth=50;tabHeight=17;tabPosition=left;html=1;rounded=0;shadow=0;comic=0;labelBackgroundColor=none;strokeWidth=1;fontFamily=Verdana;fontSize=10;align=center;labelPosition=center;verticalLabelPosition=middle;verticalAlign=middle;" vertex="1" parent="1">
          <mxGeometry x="380" y="660" width="680" height="350" as="geometry" />
        </mxCell>
        <mxCell id="gY_7XjyDLN-W95m0JR-Q-15" value="&lt;span style=&quot;font-size: 18px;&quot;&gt;Supabase&lt;/span&gt;" style="text;html=1;align=center;verticalAlign=middle;whiteSpace=wrap;rounded=0;" vertex="1" parent="1">
          <mxGeometry x="680" y="674" width="110" height="60" as="geometry" />
        </mxCell>
        <mxCell id="gY_7XjyDLN-W95m0JR-Q-16" value="" style="shape=folder;fontStyle=1;spacingTop=10;tabWidth=50;tabHeight=17;tabPosition=left;html=1;rounded=0;shadow=0;comic=0;labelBackgroundColor=none;strokeWidth=1;fontFamily=Verdana;fontSize=10;align=center;labelPosition=center;verticalLabelPosition=middle;verticalAlign=middle;" vertex="1" parent="1">
          <mxGeometry x="400" y="724" width="280" height="250" as="geometry" />
        </mxCell>
        <mxCell id="gY_7XjyDLN-W95m0JR-Q-17" value="&lt;font style=&quot;font-size: 18px;&quot;&gt;PostgreSQL&lt;/font&gt;" style="text;html=1;align=center;verticalAlign=middle;whiteSpace=wrap;rounded=0;" vertex="1" parent="1">
          <mxGeometry x="485" y="734" width="110" height="60" as="geometry" />
        </mxCell>
        <mxCell id="gY_7XjyDLN-W95m0JR-Q-18" value="" style="shape=folder;fontStyle=1;spacingTop=10;tabWidth=50;tabHeight=17;tabPosition=left;html=1;rounded=0;shadow=0;comic=0;labelBackgroundColor=none;strokeWidth=1;fontFamily=Verdana;fontSize=10;align=center;labelPosition=center;verticalLabelPosition=middle;verticalAlign=middle;" vertex="1" parent="1">
          <mxGeometry x="760" y="724" width="280" height="250" as="geometry" />
        </mxCell>
        <mxCell id="gY_7XjyDLN-W95m0JR-Q-19" value="&lt;span style=&quot;font-size: 18px;&quot;&gt;S3 Buckets&lt;/span&gt;" style="text;html=1;align=center;verticalAlign=middle;whiteSpace=wrap;rounded=0;" vertex="1" parent="1">
          <mxGeometry x="845" y="734" width="110" height="60" as="geometry" />
        </mxCell>
        <mxCell id="gY_7XjyDLN-W95m0JR-Q-21" value="" style="shape=folder;fontStyle=1;spacingTop=10;tabWidth=50;tabHeight=17;tabPosition=left;html=1;rounded=0;shadow=0;comic=0;labelBackgroundColor=none;strokeWidth=1;fontFamily=Verdana;fontSize=10;align=center;labelPosition=center;verticalLabelPosition=middle;verticalAlign=middle;" vertex="1" parent="1">
          <mxGeometry x="1090" y="210" width="530" height="350" as="geometry" />
        </mxCell>
        <mxCell id="gY_7XjyDLN-W95m0JR-Q-22" value="" style="shape=folder;fontStyle=1;spacingTop=10;tabWidth=50;tabHeight=17;tabPosition=left;html=1;rounded=0;shadow=0;comic=0;labelBackgroundColor=none;strokeWidth=1;fontFamily=Verdana;fontSize=10;align=center;labelPosition=center;verticalLabelPosition=middle;verticalAlign=middle;" vertex="1" parent="1">
          <mxGeometry x="1210" y="270" width="310" height="250" as="geometry" />
        </mxCell>
        <mxCell id="gY_7XjyDLN-W95m0JR-Q-23" value="" style="shape=folder;fontStyle=1;spacingTop=10;tabWidth=50;tabHeight=17;tabPosition=left;html=1;rounded=0;shadow=0;comic=0;labelBackgroundColor=none;strokeWidth=1;fontFamily=Verdana;fontSize=10;align=center;labelPosition=center;verticalLabelPosition=middle;verticalAlign=middle;" vertex="1" parent="1">
          <mxGeometry x="1220" y="365" width="128.5" height="92" as="geometry" />
        </mxCell>
        <mxCell id="gY_7XjyDLN-W95m0JR-Q-24" value="&lt;font style=&quot;font-size: 18px;&quot;&gt;Components&lt;/font&gt;" style="text;html=1;align=center;verticalAlign=middle;whiteSpace=wrap;rounded=0;" vertex="1" parent="1">
          <mxGeometry x="1229.25" y="377" width="110" height="60" as="geometry" />
        </mxCell>
        <mxCell id="gY_7XjyDLN-W95m0JR-Q-25" value="" style="shape=folder;fontStyle=1;spacingTop=10;tabWidth=50;tabHeight=17;tabPosition=left;html=1;rounded=0;shadow=0;comic=0;labelBackgroundColor=none;strokeWidth=1;fontFamily=Verdana;fontSize=10;align=center;labelPosition=center;verticalLabelPosition=middle;verticalAlign=middle;" vertex="1" parent="1">
          <mxGeometry x="1381.5" y="365" width="128.5" height="92" as="geometry" />
        </mxCell>
        <mxCell id="gY_7XjyDLN-W95m0JR-Q-26" value="&lt;font style=&quot;font-size: 18px;&quot;&gt;Pages&lt;/font&gt;" style="text;html=1;align=center;verticalAlign=middle;whiteSpace=wrap;rounded=0;" vertex="1" parent="1">
          <mxGeometry x="1390.75" y="377" width="110" height="60" as="geometry" />
        </mxCell>
        <mxCell id="gY_7XjyDLN-W95m0JR-Q-28" value="&lt;span style=&quot;font-size: 18px;&quot;&gt;Mobile&lt;/span&gt;" style="text;html=1;align=center;verticalAlign=middle;whiteSpace=wrap;rounded=0;" vertex="1" parent="1">
          <mxGeometry x="1310" y="220" width="110" height="60" as="geometry" />
        </mxCell>
        <mxCell id="gY_7XjyDLN-W95m0JR-Q-29" style="edgeStyle=orthogonalEdgeStyle;rounded=0;orthogonalLoop=1;jettySize=auto;html=1;exitX=0.414;exitY=0.994;exitDx=0;exitDy=0;exitPerimeter=0;dashed=1;" edge="1" parent="1" source="gY_7XjyDLN-W95m0JR-Q-21" target="gY_7XjyDLN-W95m0JR-Q-14">
          <mxGeometry relative="1" as="geometry">
            <mxPoint x="1262" y="570" as="sourcePoint" />
            <mxPoint x="1250" y="684" as="targetPoint" />
            <Array as="points">
              <mxPoint x="1309" y="570" />
              <mxPoint x="1250" y="570" />
              <mxPoint x="1250" y="835" />
            </Array>
          </mxGeometry>
        </mxCell>
      </root>
    </mxGraphModel>
  </diagram>
</mxfile>
